<?xml version="1.0" encoding="UTF-8" standalone="no"?>
<svg width="138px" height="57px" viewBox="0 0 138 57" version="1.1" xmlns="http://www.w3.org/2000/svg" xmlns:xlink="http://www.w3.org/1999/xlink">
    <!-- Generator: sketchtool 3.7.2 (28276) - http://www.bohemiancoding.com/sketch -->
    <title>BA25AFDA-5996-4FF9-ABAB-6C8AF56AFC5F</title>
    <desc>Created with sketchtool.</desc>
    <defs></defs>
    <g id="Page-2" stroke="none" stroke-width="1" fill="none" fill-rule="evenodd">
        <g id="home-op-03" transform="translate(-111.000000, -82.000000)" fill="#FFFFFF">
            <path d="M228.449605,123.605203 C228.449605,124.184592 227.948993,124.666374 227.341546,124.666374 L212.097608,124.666374 C211.491604,124.666374 210.996767,124.184592 210.996767,123.605203 L210.996767,110.683925 C210.996767,110.096547 210.499043,109.619975 209.888347,109.619975 L209.585164,109.619975 C208.986018,109.619975 208.48288,109.139582 208.48288,108.553593 L208.48288,97.3934076 C208.48288,96.8070714 208.986018,96.330847 209.585164,96.330847 L227.341546,96.330847 C227.948993,96.330847 228.449605,96.8070714 228.449605,97.3934076 L228.449605,123.605203 Z M238.922391,82.0135469 L198.954652,82 C198.954652,82 198.943463,82.0065998 198.936244,82.0135469 C193.55187,82.3664601 189.90177,86.15333 189.90177,91.3921461 L189.90177,113.366204 C189.838246,113.6229 189.687377,113.54405 189.502941,113.13035 L176.956244,82.9837109 C176.716585,82.4407942 176.030094,82 175.422285,82 L152.321232,82 C151.721725,82 151.223278,82.4762244 151.223278,83.0594344 L151.223278,123.249858 C151.223278,123.833068 150.719779,124.312072 150.114858,124.312072 L130.785177,124.312072 C130.177729,124.312072 129.682892,123.833068 129.682892,123.249858 L129.682892,83.0594344 C129.682892,82.4762244 129.183724,82 128.574472,82 L112.109503,82 C111.503499,82 111,82.4762244 111,83.0594344 L111,129.606464 C111,135.111355 115.039544,139 120.868225,139 L148.545528,139 L155.417662,139 L160.074399,139 C165.905246,139 169.942264,135.111355 169.942264,129.606464 L169.942264,123.37317 L169.919525,123.37317 L169.919525,107.952321 C169.919525,107.363553 170.112984,107.32847 170.351199,107.863051 L182.945539,138.021847 C183.175092,138.563374 183.868802,139 184.478054,139 L238.922391,139 C244.763343,139 248.804331,135.111355 248.804331,129.606464 L248.804331,91.3921461 C248.804331,85.8858663 244.763343,82.0135469 238.922391,82.0135469 L238.922391,82.0135469 Z" id="logo_uno_full_white"></path>
        </g>
    </g>
</svg>